<?xml version="1.0" standalone="no"?>
<!DOCTYPE svg PUBLIC "-//W3C//DTD SVG 20010904//EN"
 "http://www.w3.org/TR/2001/REC-SVG-20010904/DTD/svg10.dtd">
<svg version="1.0" xmlns="http://www.w3.org/2000/svg"
 width="1024.000000pt" height="243.000000pt" viewBox="0 0 1024.000000 243.000000"
 preserveAspectRatio="xMidYMid meet">

<g transform="translate(0.000000,243.000000) scale(0.100000,-0.100000)"
fill="#000000" stroke="none">
<path d="M9833 2230 c-64 -38 -86 -121 -51 -189 54 -105 198 -108 255 -6 28
49 28 77 3 132 -35 78 -134 108 -207 63z m133 -16 c41 -19 64 -59 64 -108 0
-76 -47 -121 -123 -120 -40 0 -53 6 -80 32 -28 28 -32 39 -32 86 0 44 5 59 25
81 44 47 89 56 146 29z"/>
<path d="M9845 2180 c-7 -11 -5 -113 3 -142 8 -31 22 -19 22 17 0 27 4 35 18
35 11 0 27 -14 38 -35 11 -21 26 -35 37 -35 18 0 18 2 -3 37 -19 32 -20 37 -6
45 19 11 21 59 4 76 -15 15 -104 16 -113 2z m98 -34 c8 -20 -2 -26 -40 -26
-26 0 -33 4 -33 20 0 16 7 20 34 20 20 0 36 -6 39 -14z"/>
<path d="M1093 2200 c-13 -5 -23 -13 -23 -18 0 -11 59 -100 72 -108 21 -13 18
7 -6 49 -31 53 -32 57 -6 57 27 0 17 17 245 -455 l192 -400 47 -3 46 -3 109
-225 c74 -151 115 -224 125 -224 9 0 16 2 16 4 0 2 -44 93 -98 202 -54 109
-104 213 -111 230 -11 28 -18 32 -63 38 l-50 7 -80 167 c-354 735 -340 712
-415 682z"/>
<path d="M1409 1823 c99 -198 179 -368 178 -377 -2 -23 25 -41 47 -33 23 9 20
52 -4 63 -14 6 -79 126 -193 354 -119 239 -177 346 -190 348 -13 3 28 -89 162
-355z m221 -383 c0 -5 -4 -10 -10 -10 -5 0 -10 5 -10 10 0 6 5 10 10 10 6 0
10 -4 10 -10z"/>
<path d="M1025 2139 c-4 -6 13 -43 37 -82 40 -67 46 -72 81 -75 28 -2 40 -9
46 -25 5 -12 58 -125 118 -252 169 -353 190 -397 206 -436 13 -33 19 -37 61
-41 26 -3 48 -7 49 -9 1 -2 40 -82 87 -176 58 -120 90 -173 101 -173 13 0 -5
44 -76 189 l-93 188 -46 7 c-40 6 -47 11 -65 49 -212 450 -326 684 -339 695
-9 6 -28 12 -43 12 -24 0 -34 10 -69 70 -22 39 -43 70 -45 70 -2 0 -7 -5 -10
-11z"/>
<path d="M986 2071 c-4 -6 8 -39 26 -73 18 -34 33 -76 33 -93 0 -28 3 -30 35
-30 32 0 35 2 35 30 0 21 -7 33 -24 41 -13 7 -37 36 -53 66 -35 63 -44 73 -52
59z m106 -166 c0 -5 -5 -11 -11 -13 -6 -2 -11 4 -11 13 0 9 5 15 11 13 6 -2
11 -8 11 -13z"/>
<path d="M5015 2053 c-28 -4 -37 -15 -90 -111 -32 -59 -113 -206 -180 -327
-111 -201 -356 -648 -384 -702 l-12 -23 110 0 109 0 47 88 c164 303 278 517
357 668 40 78 77 143 81 145 5 2 61 -99 126 -226 136 -268 269 -524 318 -612
l34 -63 110 0 111 0 -45 83 c-24 45 -136 253 -247 462 -252 472 -320 598 -328
607 -9 8 -80 15 -117 11z"/>
<path d="M8699 2050 c-102 -8 -180 -45 -213 -103 -34 -59 -49 -149 -44 -259
13 -249 101 -308 460 -308 l118 0 0 103 0 102 -159 -3 c-155 -3 -159 -3 -186
21 -24 20 -29 34 -33 83 -6 81 12 142 44 154 14 6 93 10 175 10 l149 0 1 78
c1 42 2 88 2 102 l1 25 -119 0 c-66 0 -154 -2 -196 -5z"/>
<path d="M9118 2052 c-16 -3 -18 -16 -18 -103 l0 -99 225 0 c212 0 226 -1 245
-20 11 -11 20 -29 20 -40 0 -19 7 -20 95 -20 l95 0 0 38 c0 66 -29 144 -67
179 -55 53 -109 63 -358 66 -121 2 -228 1 -237 -1z"/>
<path d="M2010 1470 l0 -580 95 0 95 0 -7 438 -6 437 49 -45 c27 -25 99 -90
159 -145 60 -55 143 -131 185 -170 42 -38 139 -126 215 -194 77 -68 179 -160
226 -202 127 -116 132 -119 181 -119 l44 0 0 580 -1 580 -92 0 -93 0 0 -405
c0 -223 -3 -405 -6 -405 -4 0 -41 33 -83 73 -138 133 -477 444 -678 621 l-132
116 -76 0 -75 0 0 -580z"/>
<path d="M3350 1950 l0 -100 246 0 246 0 -2 -422 c-2 -233 -2 -449 -1 -480 l1
-58 101 0 102 0 -8 245 c-4 134 -4 350 0 480 l8 235 243 0 244 0 0 100 0 100
-590 0 -590 0 0 -100z"/>
<path d="M5840 1652 c0 -219 3 -481 7 -580 l6 -182 94 0 93 0 0 251 0 252 46
-7 c26 -3 129 -6 229 -6 l182 0 114 -245 114 -245 102 0 c57 0 103 3 103 7 0
3 -18 45 -39 92 -117 258 -172 383 -169 386 2 2 30 8 63 14 67 13 122 45 158
93 42 56 52 103 51 249 0 130 -1 139 -30 195 -26 52 -36 62 -89 89 l-60 30
-487 3 -488 3 0 -399z m934 173 c12 -15 15 -42 13 -114 -3 -139 25 -129 -400
-133 l-347 -3 0 138 0 138 360 -3 c346 -3 360 -4 374 -23z"/>
<path d="M7130 1950 l0 -100 575 0 576 0 -3 98 -3 97 -572 3 -573 2 0 -100z"/>
<path d="M738 1619 c-279 -520 -388 -725 -388 -733 0 -3 83 -6 184 -6 l184 0
59 108 60 107 165 5 165 5 -54 110 c-30 61 -64 132 -76 159 l-21 49 48 91 48
91 -56 120 c-31 66 -71 151 -89 189 l-33 69 -196 -364z"/>
<path d="M1144 1896 c6 -25 210 -455 309 -653 55 -109 57 -111 96 -118 39 -6
42 -10 76 -83 30 -63 34 -80 26 -103 -8 -23 -6 -33 9 -51 15 -19 22 -21 46
-13 23 8 30 17 32 43 3 26 -1 34 -21 43 -16 7 -38 41 -67 99 -43 87 -44 88
-85 95 -40 6 -44 9 -68 63 -15 32 -82 172 -150 312 -68 140 -136 285 -152 323
-16 37 -36 67 -43 67 -10 0 -12 -7 -8 -24z m566 -976 c0 -5 -7 -10 -15 -10 -8
0 -15 5 -15 10 0 6 7 10 15 10 8 0 15 -4 15 -10z"/>
<path d="M1110 1795 c0 -12 141 -307 256 -536 80 -157 128 -263 126 -278 -4
-27 23 -61 48 -61 28 0 53 36 46 65 -5 18 -15 27 -38 32 -29 6 -39 23 -222
394 -105 214 -197 388 -203 389 -7 0 -13 -2 -13 -5z m440 -825 c0 -5 -4 -10
-10 -10 -5 0 -10 5 -10 10 0 6 5 10 10 10 6 0 10 -4 10 -10z"/>
<path d="M7120 1490 l0 -100 580 0 580 0 0 78 c0 42 -3 87 -6 100 l-6 22 -574
0 -574 0 0 -100z"/>
<path d="M9118 1584 c-16 -5 -18 -19 -18 -100 l0 -94 195 0 c206 0 253 -8 273
-47 14 -26 23 -170 12 -198 -20 -54 -43 -59 -271 -57 l-209 2 0 -101 0 -101
243 5 c155 2 256 9 282 17 54 17 120 84 136 140 21 71 18 282 -5 352 -23 71
-71 128 -133 159 -46 22 -59 24 -268 26 -121 1 -228 -1 -237 -3z"/>
<path d="M8450 1137 c0 -117 51 -201 137 -228 21 -6 129 -14 241 -16 l202 -5
0 101 0 101 -157 0 c-183 0 -224 12 -233 65 l-5 30 -93 3 -92 3 0 -54z"/>
<path d="M7120 990 l0 -100 580 0 580 0 0 100 0 100 -580 0 -580 0 0 -100z"/>
<path d="M2798 666 c-110 -30 -168 -111 -168 -236 0 -105 53 -185 146 -220 46
-17 78 -20 205 -20 134 0 150 2 145 16 -3 9 -6 29 -6 45 l0 29 -142 0 c-116 0
-149 3 -177 18 -50 25 -74 63 -78 124 -5 65 17 112 66 145 31 21 45 23 182 23
l149 0 0 29 c0 16 3 36 6 45 5 14 -10 16 -137 15 -82 0 -164 -6 -191 -13z"/>
<path d="M3556 641 c-23 -35 -179 -305 -244 -419 l-24 -43 43 5 c24 2 49 5 55
5 11 1 57 75 161 264 l60 109 30 -54 c16 -29 63 -115 104 -190 l74 -138 48 0
c31 0 47 4 47 13 0 6 -60 118 -133 247 -126 224 -134 235 -164 238 -28 3 -35
-2 -57 -37z"/>
<path d="M4100 433 l0 -248 45 0 45 0 0 203 0 202 135 0 c78 0 144 -5 159 -11
49 -23 58 -97 16 -139 -18 -18 -34 -20 -140 -20 l-120 0 0 -45 0 -45 113 0
c132 0 181 12 218 51 37 40 55 117 39 172 -14 51 -36 79 -81 103 -29 16 -62
19 -231 22 l-198 4 0 -249z"/>
<path d="M4820 429 c0 -225 2 -251 16 -245 9 3 28 6 43 6 l28 0 1 228 c0 125
-2 235 -4 245 -4 12 -16 17 -45 17 l-39 0 0 -251z"/>
<path d="M5594 673 c-7 -5 -45 -64 -86 -133 -146 -245 -208 -349 -208 -353 0
-2 24 -4 53 -5 l52 -2 69 122 c38 68 87 154 109 191 l40 68 37 -68 c20 -37 67
-123 105 -190 l69 -121 53 0 c29 0 53 2 53 3 0 6 -214 378 -247 430 -38 60
-69 78 -99 58z"/>
<path d="M6140 431 l0 -249 205 -1 205 -1 0 45 0 45 -160 0 -160 0 0 205 0
205 -45 0 -45 0 0 -249z"/>
<path d="M6852 563 l117 -118 -124 -130 -125 -130 52 -3 52 -3 106 106 107
107 95 -102 95 -102 57 -2 c31 0 56 1 56 4 0 3 -54 61 -120 130 l-119 125 117
118 117 117 -56 0 -57 0 -93 -90 -93 -91 -91 91 -90 90 -60 0 -60 0 117 -117z"/>
</g>
</svg>
