<?xml version="1.0" standalone="no"?>
<!DOCTYPE svg PUBLIC "-//W3C//DTD SVG 20010904//EN"
 "http://www.w3.org/TR/2001/REC-SVG-20010904/DTD/svg10.dtd">
<svg version="1.0" xmlns="http://www.w3.org/2000/svg"
 width="1216.000000pt" height="289.000000pt" viewBox="0 0 1216.000000 289.000000"
 preserveAspectRatio="xMidYMid meet">

<g transform="translate(0.000000,289.000000) scale(0.100000,-0.100000)"
fill="#000000" stroke="none">
<path d="M11766 2677 c-47 -27 -86 -94 -86 -149 0 -148 177 -231 287 -135 89
78 85 209 -8 276 -54 40 -132 43 -193 8z m147 -11 c56 -24 80 -59 84 -124 3
-42 -1 -66 -15 -91 -51 -94 -204 -94 -254 0 -68 127 55 271 185 215z"/>
<path d="M11780 2530 c0 -82 3 -100 15 -100 11 0 15 11 15 40 0 33 3 40 20 40
12 0 30 -16 46 -40 15 -22 33 -40 40 -40 19 0 18 9 -7 49 l-20 33 20 15 c29
19 28 67 -1 87 -14 10 -44 16 -75 16 l-53 0 0 -100z m116 55 c10 -24 -15 -45
-52 -45 -31 0 -34 3 -34 30 0 28 2 30 40 30 27 0 43 -5 46 -15z"/>
<path d="M1013 2640 c-34 -14 -28 -41 19 -99 63 -77 83 -66 27 16 -22 32 -28
48 -20 56 29 29 57 -10 181 -250 329 -639 398 -767 411 -774 8 -5 35 -11 60
-14 l47 -6 136 -269 c84 -166 143 -270 152 -270 8 0 14 3 14 8 -1 4 -65 133
-143 287 l-142 280 -56 3 -55 3 -199 387 c-238 465 -310 602 -327 624 -16 21
-75 31 -105 18z"/>
<path d="M1208 2568 c16 -29 93 -174 172 -323 78 -148 169 -319 202 -379 39
-72 57 -115 53 -128 -8 -25 11 -48 41 -48 45 0 52 58 10 78 -12 5 -29 23 -37
38 -28 57 -370 701 -412 777 -13 23 -28 37 -40 37 -17 0 -16 -4 11 -52z m482
-843 c0 -8 -7 -15 -15 -15 -8 0 -15 7 -15 15 0 8 7 15 15 15 8 0 15 -7 15 -15z"/>
<path d="M934 2567 c-3 -10 14 -48 45 -100 48 -81 53 -85 92 -90 23 -3 48 -11
55 -19 7 -7 112 -209 233 -448 l219 -435 51 -10 c27 -5 55 -15 61 -21 7 -7 57
-101 113 -210 91 -177 128 -232 127 -192 0 7 -49 110 -109 228 l-109 215 -56
9 -57 8 -194 387 c-280 558 -251 509 -309 518 -48 8 -50 9 -93 83 -54 91 -60
98 -69 77z"/>
<path d="M885 2480 c-4 -6 12 -42 34 -81 25 -43 41 -84 41 -103 0 -39 15 -56
50 -56 40 0 56 40 29 74 -11 14 -27 26 -35 26 -7 0 -33 34 -56 75 -43 75 -52
83 -63 65z m139 -201 c-8 -14 -34 -11 -34 4 0 8 3 17 7 20 9 9 34 -13 27 -24z"/>
<path d="M2247 2463 c-4 -3 -7 -321 -7 -705 l0 -698 112 0 111 0 -6 519 c-4
285 -4 521 0 524 3 4 61 -46 127 -111 67 -64 318 -299 560 -522 l438 -405 59
-3 59 -3 -2 703 -3 703 -105 0 -105 0 -5 -497 -5 -497 -100 97 c-117 114 -521
494 -783 735 l-181 167 -79 0 c-43 0 -82 -3 -85 -7z"/>
<path d="M5845 2462 c-6 -4 -42 -63 -80 -132 -38 -69 -212 -381 -387 -694
-175 -313 -318 -570 -318 -572 0 -2 58 -4 129 -4 l129 0 50 88 c47 82 297 536
429 777 33 61 75 138 92 173 17 34 35 62 39 62 4 0 22 -28 39 -62 17 -35 85
-164 153 -288 67 -124 185 -343 263 -487 l141 -263 133 0 c73 0 133 3 133 7 0
3 -25 52 -57 107 -134 239 -541 970 -594 1068 -83 151 -120 212 -133 220 -6 4
-42 8 -81 8 -38 0 -75 -4 -80 -8z"/>
<path d="M6914 2462 c-19 -3 -22 -12 -28 -94 -8 -118 -8 -588 1 -991 l6 -317
114 0 113 0 0 299 0 300 358 -6 c196 -3 358 -7 360 -8 1 -1 45 -90 96 -196 51
-107 114 -238 140 -291 l48 -98 120 0 c117 0 119 0 113 21 -10 29 -173 386
-219 476 -20 40 -36 78 -36 86 0 7 29 25 65 41 116 50 166 140 179 321 8 114
-7 241 -35 297 -43 87 -101 128 -204 147 -53 10 -1132 21 -1191 13z m1139
-254 c41 -21 46 -39 47 -151 0 -107 0 -109 -29 -138 l-29 -29 -461 0 -461 0 0
165 0 165 456 0 c327 0 461 -3 477 -12z"/>
<path d="M3840 2340 l0 -120 297 0 296 0 -7 -580 -7 -580 115 0 116 0 0 428
c0 236 3 497 7 580 l6 152 299 0 298 0 0 120 0 120 -710 0 -710 0 0 -120z"/>
<path d="M8537 2453 c-4 -3 -7 -57 -7 -120 l0 -113 690 0 691 0 -3 118 -3 117
-681 3 c-374 1 -684 -1 -687 -5z"/>
<path d="M10298 2446 c-157 -43 -214 -159 -205 -421 5 -158 21 -209 86 -276
71 -73 134 -89 394 -96 l207 -6 0 121 0 122 -185 0 c-208 0 -233 6 -256 62 -8
20 -13 65 -12 116 1 91 16 126 59 142 14 6 108 10 210 10 l185 0 -3 118 -3
117 -215 2 c-148 1 -230 -2 -262 -11z"/>
<path d="M10880 2341 l0 -121 260 0 c306 0 330 -6 330 -81 0 -18 8 -19 111
-19 l112 0 -7 68 c-3 37 -11 85 -17 107 -14 51 -91 128 -144 146 -28 9 -132
14 -342 16 l-303 4 0 -120z"/>
<path d="M560 1853 c-145 -285 -296 -582 -337 -661 l-74 -142 225 0 225 0 60
112 c93 176 60 158 282 158 l191 0 -98 188 -97 187 57 108 57 108 -47 102
c-59 130 -173 357 -178 357 -3 0 -122 -233 -266 -517z"/>
<path d="M1070 2299 c0 -10 233 -471 394 -781 l87 -168 50 -6 50 -7 45 -94
c41 -84 44 -98 35 -125 -9 -25 -8 -36 4 -55 20 -30 68 -31 88 -2 19 26 11 54
-23 82 -15 12 -51 68 -81 123 l-53 102 -47 6 -48 7 -124 242 c-69 133 -173
337 -231 452 -59 116 -111 216 -117 223 -12 15 -29 16 -29 1z m726 -1200 c3
-6 1 -16 -5 -22 -9 -9 -14 -8 -21 3 -9 15 -4 30 10 30 5 0 12 -5 16 -11z"/>
<path d="M1055 2150 c-7 -11 311 -643 423 -844 44 -77 61 -118 60 -142 -2 -44
17 -64 58 -64 27 0 37 5 46 25 16 36 -3 74 -42 82 -26 5 -38 20 -84 102 -92
165 -219 408 -330 628 -59 117 -111 215 -116 218 -5 3 -12 1 -15 -5z m555
-995 c0 -8 -7 -15 -15 -15 -8 0 -15 7 -15 15 0 8 7 15 15 15 8 0 15 -7 15 -15z"/>
<path d="M8537 1893 c-4 -3 -7 -57 -7 -120 l0 -113 684 0 683 0 6 93 c3 50 5
103 4 117 l-2 25 -681 3 c-374 1 -684 -1 -687 -5z"/>
<path d="M10898 1893 c-16 -4 -18 -18 -18 -119 l0 -114 230 0 c260 0 298 -7
327 -64 24 -45 30 -190 9 -239 -26 -62 -49 -67 -326 -67 l-240 0 0 -116 0
-115 293 3 c283 3 294 4 345 27 71 32 125 95 146 169 19 68 22 286 6 373 -22
113 -81 192 -179 238 -56 26 -58 26 -316 28 -143 1 -268 -1 -277 -4z"/>
<path d="M10094 1407 c-9 -25 15 -176 35 -215 26 -52 81 -98 133 -114 30 -9
115 -13 282 -13 l238 0 2 110 1 110 -190 6 c-232 7 -259 16 -274 92 l-7 32
-107 3 c-84 2 -109 0 -113 -11z"/>
<path d="M8530 1178 l0 -118 690 0 691 0 -3 117 -3 116 -688 1 -687 1 0 -117z"/>
<path d="M4098 798 c-18 -14 -338 -545 -338 -560 0 -5 26 -8 57 -6 l57 3 123
210 c67 115 126 211 130 212 5 2 50 -72 101 -164 51 -93 106 -189 122 -215 30
-48 30 -48 85 -48 30 0 55 3 55 6 0 15 -305 541 -323 557 -23 20 -47 22 -69 5z"/>
<path d="M6962 790 c-22 -27 -332 -540 -332 -551 0 -5 25 -9 55 -9 46 0 57 4
69 22 7 13 64 110 126 216 62 105 115 192 119 192 4 0 61 -96 127 -212 l122
-213 56 -3 c36 -2 56 1 56 8 0 6 -32 66 -71 133 -107 184 -172 296 -208 360
-45 78 -84 97 -119 57z"/>
<path d="M3145 791 c-129 -32 -200 -129 -200 -272 1 -102 37 -178 109 -226 70
-48 112 -56 301 -57 l170 -1 0 50 0 50 -180 5 c-197 5 -224 13 -269 73 -30 41
-31 173 0 213 49 66 58 69 267 74 l192 5 0 45 0 45 -180 2 c-99 0 -193 -2
-210 -6z"/>
<path d="M4735 788 c-3 -7 -4 -135 -3 -283 l3 -270 47 -3 48 -3 2 233 3 233
165 3 c174 3 209 -3 235 -42 26 -36 19 -94 -14 -127 l-29 -29 -146 0 -146 0 0
-50 0 -50 153 0 c126 0 159 4 192 19 75 35 105 85 105 178 0 80 -29 136 -88
171 l-47 27 -238 3 c-190 3 -238 1 -242 -10z"/>
<path d="M5610 515 l0 -285 45 0 45 0 0 285 0 285 -45 0 -45 0 0 -285z"/>
<path d="M5980 750 l0 -50 110 0 110 0 0 -235 0 -235 50 0 50 0 0 235 0 235
110 0 110 0 0 50 0 50 -270 0 -270 0 0 -50z"/>
<path d="M7620 793 c0 -5 -1 -132 -2 -283 l-3 -275 238 -3 237 -2 0 50 0 50
-190 0 -190 0 0 235 0 235 -45 0 c-25 0 -45 -3 -45 -7z"/>
<path d="M8340 793 c0 -3 59 -65 131 -136 l131 -130 -128 -130 c-71 -72 -135
-135 -141 -140 -27 -17 -11 -27 44 -27 l56 0 119 117 118 117 118 -117 119
-117 61 0 c34 0 62 2 62 5 0 2 -39 44 -88 92 -48 48 -112 114 -141 146 l-55
58 134 134 135 135 -59 0 -58 0 -110 -105 -111 -104 -86 78 c-47 44 -97 91
-110 105 -21 22 -33 26 -83 26 -32 0 -58 -3 -58 -7z"/>
</g>
</svg>
